<svg xmlns="http://www.w3.org/2000/svg" width="481" height="72" viewBox="0 0 481 72" version="1.1"><path d="M 312.872 17.750 C 311.679 19.272, 311.695 19.351, 313 18.358 C 313.825 17.729, 315.400 16.994, 316.500 16.724 C 318.400 16.257, 318.393 16.226, 316.372 16.116 C 315.202 16.052, 313.627 16.788, 312.872 17.750 M 220.835 24.598 C 220.651 28.227, 220.838 31.404, 221.250 31.657 C 221.662 31.911, 222 29.192, 222 25.617 L 222 19.115 226.250 18.732 L 230.500 18.349 225.835 18.175 L 221.171 18 220.835 24.598 M 350.993 18.709 L 355 19.115 355 26.212 L 355 33.310 357.062 31.444 C 358.196 30.418, 361.233 29.283, 363.812 28.923 L 368.500 28.267 364.473 28.134 C 362.257 28.060, 359.467 28.685, 358.271 29.523 C 356.115 31.033, 356.094 30.993, 355.798 24.773 L 355.500 18.500 351.243 18.402 L 346.985 18.304 350.993 18.709 M 320.116 20.550 C 320.052 21.678, 319.552 23.142, 319.004 23.804 C 318.456 24.466, 318.724 24.384, 319.600 23.622 C 320.476 22.860, 320.976 21.396, 320.712 20.368 C 320.279 18.684, 320.221 18.702, 320.116 20.550 M 7.225 37.750 L 7.450 55.500 7.748 38.250 L 8.047 21 12.024 21 L 16 21 16 28 C 16 34.531, 16.908 36.576, 18.595 33.845 C 19.038 33.130, 18.870 32.962, 18.155 33.405 C 17.323 33.918, 17 32.140, 17 27.059 L 17 20 12 20 L 7 20 7.225 37.750 M 27.872 21.750 C 26.671 23.282, 26.691 23.352, 28.030 22.310 C 28.872 21.655, 32.022 20.951, 35.030 20.745 L 40.500 20.370 34.872 20.185 C 30.550 20.043, 28.927 20.406, 27.872 21.750 M 297.459 21.067 C 297.096 21.653, 297.070 22.403, 297.400 22.733 C 297.730 23.063, 298 22.808, 298 22.167 C 298 21.452, 299.732 21, 302.476 21 L 306.953 21 307.252 38.250 L 307.550 55.500 307.775 37.750 L 308 20 303.059 20 C 300.341 20, 297.821 20.480, 297.459 21.067 M 34.453 26.250 L 30.500 30.500 34.750 26.547 C 38.702 22.871, 39.460 22, 38.703 22 C 38.540 22, 36.627 23.913, 34.453 26.250 M 21.946 28.750 L 18.500 32.500 22.250 29.054 C 25.740 25.846, 26.460 25, 25.696 25 C 25.529 25, 23.842 26.688, 21.946 28.750 M 71.750 28.732 C 75.217 29.044, 76 29.486, 76 31.130 C 76 33.136, 76.012 33.135, 78.635 31.073 C 80.084 29.933, 81.997 28.964, 82.885 28.921 C 83.969 28.868, 84.078 28.673, 83.218 28.327 C 82.513 28.044, 80.825 28.540, 79.468 29.429 C 77.299 30.850, 77 30.862, 77 29.523 C 77 28.348, 75.914 28.040, 72.250 28.175 L 67.500 28.349 71.750 28.732 M 85 31.500 C 85 33.625, 84.509 35.006, 83.750 35.015 C 82.799 35.027, 82.786 35.212, 83.693 35.789 C 84.350 36.207, 85.052 39.237, 85.254 42.524 C 85.521 46.864, 85.674 45.847, 85.811 38.807 L 86 29.115 90.250 28.732 L 94.500 28.349 89.750 28.175 L 85 28 85 31.500 M 103.201 36.195 L 103.402 44.500 103.743 36.750 L 104.084 29 108.013 29 L 111.942 29 112.264 41.750 L 112.587 54.500 112.544 41.500 L 112.500 28.500 107.750 28.195 L 103 27.890 103.201 36.195 M 119.750 28.732 C 122.609 28.990, 124 29.587, 124 30.557 C 124 32.517, 125.462 32.374, 127.128 30.250 C 128.371 28.664, 128.336 28.629, 126.750 29.872 C 125.238 31.058, 125 31.024, 125 29.622 C 125 28.329, 124.037 28.035, 120.250 28.175 L 115.500 28.349 119.750 28.732 M 155.250 28.716 C 156.762 28.945, 159.238 28.945, 160.750 28.716 C 162.262 28.487, 161.025 28.300, 158 28.300 C 154.975 28.300, 153.738 28.487, 155.250 28.716 M 176.750 28.732 C 179.609 28.990, 181 29.587, 181 30.557 C 181 32.364, 180.820 32.386, 185.500 30 C 187.658 28.900, 188.753 28, 187.934 28 C 187.115 28, 185.445 28.701, 184.223 29.557 C 182.211 30.966, 182 30.966, 182 29.557 C 182 28.342, 180.957 28.038, 177.250 28.175 L 172.500 28.349 176.750 28.732 M 233.209 38.250 L 233.419 48.500 233.745 38.806 L 234.071 29.112 238.286 28.730 L 242.500 28.349 237.750 28.175 L 233 28 233.209 38.250 M 251.201 36.195 L 251.402 44.500 251.743 36.750 L 252.084 29 256.013 29 L 259.942 29 260.264 41.750 L 260.587 54.500 260.544 41.500 L 260.500 28.500 255.750 28.195 L 251 27.890 251.201 36.195 M 293.162 30.543 C 291.487 34.220, 291.807 35.005, 293.618 31.662 C 294.464 30.100, 294.969 28.636, 294.741 28.407 C 294.512 28.179, 293.802 29.140, 293.162 30.543 M 315.993 28.709 L 320 29.115 320.070 42.307 C 320.109 49.563, 320.447 54.729, 320.821 53.787 C 321.312 52.549, 321.917 52.336, 323 53.021 C 323.825 53.543, 324.950 53.960, 325.500 53.949 C 326.050 53.938, 325.375 53.308, 324 52.549 C 321.614 51.232, 321.477 50.652, 321 39.834 L 320.500 28.500 316.243 28.402 L 311.985 28.304 315.993 28.709 M 331.250 28.716 C 332.762 28.945, 335.238 28.945, 336.750 28.716 C 338.262 28.487, 337.025 28.300, 334 28.300 C 330.975 28.300, 329.738 28.487, 331.250 28.716 M 377.218 41.750 L 377.437 55.500 377.747 42.250 L 378.058 29 381.459 29 C 384.182 29, 384.925 29.432, 385.180 31.165 C 385.489 33.252, 385.554 33.263, 387 31.473 C 387.865 30.402, 387.971 29.934, 387.250 30.367 C 386.463 30.840, 386 30.540, 386 29.559 C 386 28.378, 384.909 28, 381.500 28 L 377 28 377.218 41.750 M 389.589 28.856 C 389.298 29.326, 390.172 29.499, 391.530 29.239 C 393.719 28.821, 394 29.113, 394 31.810 C 394 33.868, 393.433 35.001, 392.250 35.311 C 390.621 35.736, 390.620 35.776, 392.224 35.884 C 393.213 35.950, 394.635 34.673, 395.557 32.890 C 396.441 31.179, 396.678 30.081, 396.083 30.449 C 395.483 30.820, 395 30.423, 395 29.559 C 395 27.893, 390.542 27.314, 389.589 28.856 M 404.250 28.716 C 405.762 28.945, 408.238 28.945, 409.750 28.716 C 411.262 28.487, 410.025 28.300, 407 28.300 C 403.975 28.300, 402.738 28.487, 404.250 28.716 M 59.083 29.261 C 59.313 29.404, 60.625 30.417, 62 31.511 L 64.500 33.500 62.595 31.250 C 61.547 30.012, 60.235 29, 59.678 29 C 59.122 29, 58.854 29.117, 59.083 29.261 M 413.083 29.261 C 413.313 29.404, 414.625 30.417, 416 31.511 L 418.500 33.500 416.595 31.250 C 415.547 30.012, 414.235 29, 413.678 29 C 413.122 29, 412.854 29.117, 413.083 29.261 M 343.210 30.466 C 343.601 30.899, 343.252 32.547, 342.434 34.127 C 341.617 35.707, 341.174 37, 341.449 37 C 341.724 37, 342.634 35.676, 343.471 34.057 C 344.661 31.755, 344.721 30.957, 343.746 30.396 C 343.061 30.002, 342.820 30.034, 343.210 30.466 M 28.004 33.495 C 27.004 34.700, 27.082 35.476, 28.405 37.495 C 29.308 38.873, 30.271 40, 30.546 40 C 30.821 40, 30.308 38.873, 29.405 37.495 C 28.082 35.476, 28.004 34.700, 29.004 33.495 C 29.687 32.673, 30.020 32, 29.745 32 C 29.470 32, 28.687 32.673, 28.004 33.495 M 277.150 44.250 C 277.313 56.539, 277.766 55.475, 278.214 41.750 C 278.371 36.937, 278.163 33, 277.750 33 C 277.337 33, 277.067 38.063, 277.150 44.250 M 285.071 33.500 C 285.071 34.050, 285.714 35.625, 286.500 37 C 287.286 38.375, 287.929 39.050, 287.929 38.500 C 287.929 37.950, 287.286 36.375, 286.500 35 C 285.714 33.625, 285.071 32.950, 285.071 33.500 M 42.015 34.691 C 41.991 36.577, 43.825 37.210, 45.742 35.979 C 47.357 34.941, 47.344 34.898, 45.580 35.458 C 44.493 35.803, 43.306 35.510, 42.845 34.784 C 42.265 33.870, 42.026 33.843, 42.015 34.691 M 154.200 35.200 C 153.540 35.860, 153.014 36.873, 153.030 37.450 C 153.047 38.027, 153.519 37.712, 154.080 36.750 C 155.267 34.712, 159.946 34.416, 162.002 36.250 C 163.194 37.313, 163.206 37.239, 162.079 35.750 C 160.562 33.744, 155.976 33.424, 154.200 35.200 M 403.250 34.689 C 404.212 34.941, 405.788 34.941, 406.750 34.689 C 407.712 34.438, 406.925 34.232, 405 34.232 C 403.075 34.232, 402.288 34.438, 403.250 34.689 M 418.374 44.500 C 418.376 50.550, 418.541 52.896, 418.740 49.713 C 418.939 46.531, 418.937 41.581, 418.736 38.713 C 418.535 35.846, 418.372 38.450, 418.374 44.500 M 132.706 37.050 C 133.370 37.902, 134.066 42.402, 134.253 47.050 L 134.593 55.500 134.796 46.872 C 134.966 39.688, 134.707 38.015, 133.250 36.872 C 131.713 35.667, 131.647 35.689, 132.706 37.050 M 189.706 37.050 C 190.370 37.902, 191.066 42.402, 191.253 47.050 L 191.593 55.500 191.796 46.872 C 191.966 39.688, 191.707 38.015, 190.250 36.872 C 188.713 35.667, 188.647 35.689, 189.706 37.050 M 363.706 37.050 C 364.370 37.902, 365.066 42.402, 365.253 47.050 L 365.593 55.500 365.796 46.872 C 365.966 39.688, 365.707 38.015, 364.250 36.872 C 362.713 35.667, 362.647 35.689, 363.706 37.050 M 386.557 38.223 C 385.437 39.821, 385.047 42.557, 385.169 47.973 L 385.338 55.500 385.919 47.167 C 386.384 40.496, 386.887 38.551, 388.441 37.417 C 389.509 36.637, 389.872 36, 389.248 36 C 388.624 36, 387.413 37, 386.557 38.223 M 143.667 37.667 C 143.300 38.033, 143 42.158, 143 46.833 C 143 51.508, 143.184 55.146, 143.409 54.917 C 143.931 54.385, 145.178 37, 144.694 37 C 144.496 37, 144.033 37.300, 143.667 37.667 M 200.750 37.571 C 200.338 37.990, 200.057 42.196, 200.126 46.917 L 200.253 55.500 201.159 48.500 C 202.133 40.975, 201.960 36.341, 200.750 37.571 M 42.314 40.750 C 41.264 41.712, 40.901 42.181, 41.507 41.790 C 42.112 41.400, 43.708 40.641, 45.054 40.104 C 46.600 39.486, 46.897 39.103, 45.861 39.063 C 44.959 39.029, 43.363 39.788, 42.314 40.750 M 155.250 39.716 C 156.762 39.945, 159.238 39.945, 160.750 39.716 C 162.262 39.487, 161.025 39.300, 158 39.300 C 154.975 39.300, 153.738 39.487, 155.250 39.716 M 171.195 41.500 C 171.215 43.150, 171.439 43.704, 171.693 42.731 C 171.947 41.758, 171.930 40.408, 171.656 39.731 C 171.382 39.054, 171.175 39.850, 171.195 41.500 M 221.195 41.500 C 221.215 43.150, 221.439 43.704, 221.693 42.731 C 221.947 41.758, 221.930 40.408, 221.656 39.731 C 221.382 39.054, 221.175 39.850, 221.195 41.500 M 355.349 47 C 355.349 51.675, 355.522 53.587, 355.732 51.250 C 355.943 48.912, 355.943 45.087, 355.732 42.750 C 355.522 40.412, 355.349 42.325, 355.349 47 M 124.343 47.500 C 124.346 51.900, 124.522 53.576, 124.733 51.224 C 124.945 48.872, 124.942 45.272, 124.727 43.224 C 124.512 41.176, 124.339 43.100, 124.343 47.500 M 181.343 47.500 C 181.346 51.900, 181.522 53.576, 181.733 51.224 C 181.945 48.872, 181.942 45.272, 181.727 43.224 C 181.512 41.176, 181.339 43.100, 181.343 47.500 M 31.970 42.944 C 32.543 44.014, 33.505 45.194, 34.109 45.567 C 34.713 45.941, 34.434 45.066, 33.489 43.623 C 31.487 40.568, 30.451 40.105, 31.970 42.944 M 76.336 48 C 76.336 52.125, 76.513 53.813, 76.728 51.750 C 76.944 49.688, 76.944 46.313, 76.728 44.250 C 76.513 42.188, 76.336 43.875, 76.336 48 M 394.035 42.934 C 393.466 43.998, 393.052 46.136, 393.115 47.684 C 393.219 50.223, 393.298 50.152, 393.922 46.966 C 394.303 45.022, 394.953 42.885, 395.366 42.216 C 395.780 41.547, 395.882 41, 395.594 41 C 395.306 41, 394.605 41.870, 394.035 42.934 M 18.111 44.382 C 16.326 46.281, 15.952 47.648, 16.262 51.132 L 16.651 55.500 16.825 50.905 C 17.011 46.018, 19.793 42.136, 22.091 43.557 C 22.868 44.037, 23.051 43.891, 22.595 43.155 C 21.550 41.463, 20.612 41.720, 18.111 44.382 M 52.750 43.723 C 56.029 44.130, 56.836 45.591, 55.004 47.804 C 54.456 48.466, 54.742 48.365, 55.640 47.581 C 58.169 45.373, 56.617 42.973, 52.781 43.160 L 49.500 43.320 52.750 43.723 M 94.063 44.050 C 93.908 47.856, 99.668 49.437, 102.079 46.250 C 103.206 44.761, 103.194 44.687, 102.002 45.750 C 99.713 47.791, 96.042 47.265, 95.031 44.750 C 94.476 43.370, 94.102 43.099, 94.063 44.050 M 242.063 44.050 C 241.908 47.856, 247.668 49.437, 250.079 46.250 C 251.206 44.761, 251.194 44.687, 250.002 45.750 C 247.713 47.791, 244.042 47.265, 243.031 44.750 C 242.476 43.370, 242.102 43.099, 242.063 44.050 M 402.200 44.200 C 401.540 44.860, 401.029 46.097, 401.063 46.950 C 401.102 47.901, 401.476 47.630, 402.031 46.250 C 402.730 44.512, 403.739 44, 406.468 44 C 411.937 44, 410.601 48.840, 405.050 49.136 C 402.585 49.268, 402.578 49.287, 404.832 49.717 C 407.572 50.238, 411 47.530, 411 44.845 C 411 43.375, 410.227 43, 407.200 43 C 405.110 43, 402.860 43.540, 402.200 44.200 M 39.232 47 C 39.232 48.925, 39.438 49.712, 39.689 48.750 C 39.941 47.788, 39.941 46.212, 39.689 45.250 C 39.438 44.288, 39.232 45.075, 39.232 47 M 47.357 45.513 C 46.561 47.586, 48.790 50.021, 51.372 49.900 C 53.257 49.812, 53.215 49.719, 51 49.088 C 49.272 48.595, 48.525 47.700, 48.579 46.187 C 48.672 43.639, 48.180 43.367, 47.357 45.513 M 210 44.623 C 210 46.642, 213.803 49.167, 216.168 48.717 C 218.311 48.308, 218.282 48.261, 215.807 48.136 C 214.271 48.059, 212.444 47.045, 211.557 45.777 C 210.701 44.555, 210 44.035, 210 44.623 M 162 47.583 C 160.459 48.438, 160.095 48.976, 161.050 48.985 C 161.903 48.993, 163.134 48.466, 163.787 47.813 C 164.702 46.898, 165.605 47.183, 167.737 49.063 L 170.500 51.500 168.076 48.750 C 165.354 45.662, 165.434 45.678, 162 47.583 M 284.068 47.559 C 283.906 50.085, 286.637 52.166, 289.549 51.736 L 292.500 51.300 289.403 51.150 C 287.270 51.047, 285.968 50.299, 285.220 48.750 C 284.624 47.513, 284.105 46.976, 284.068 47.559 M 336 47.833 C 336 48.475, 334.762 49.061, 333.250 49.136 C 330.726 49.261, 330.694 49.309, 332.865 49.721 C 335.298 50.182, 337.900 48.567, 336.683 47.350 C 336.308 46.974, 336 47.192, 336 47.833 M 41.722 53.050 C 42.944 54.337, 44.138 55.189, 44.374 54.944 C 44.611 54.700, 43.611 53.648, 42.152 52.606 L 39.500 50.712 41.722 53.050 M 101.872 52.692 C 101.118 53.623, 101.024 54.070, 101.665 53.686 C 102.305 53.302, 103.057 53.553, 103.336 54.244 C 103.614 54.935, 103.878 54.487, 103.921 53.250 C 104.016 50.555, 103.680 50.464, 101.872 52.692 M 249.872 52.692 C 249.118 53.623, 249.024 54.070, 249.665 53.686 C 250.305 53.302, 251.057 53.553, 251.336 54.244 C 251.614 54.935, 251.878 54.487, 251.921 53.250 C 252.016 50.555, 251.680 50.464, 249.872 52.692 M 395.722 53.050 C 396.944 54.337, 398.138 55.189, 398.374 54.944 C 398.611 54.700, 397.611 53.648, 396.152 52.606 L 393.500 50.712 395.722 53.050 M 165 53.500 C 163.625 54.286, 162.976 54.945, 163.559 54.965 C 164.141 54.984, 165.491 54.339, 166.559 53.532 C 169.028 51.664, 168.239 51.648, 165 53.500 M 218.559 53.532 C 217.491 54.339, 217.127 55, 217.750 55 C 218.373 55, 219.190 54.502, 219.566 53.893 C 220.043 53.122, 220.510 53.197, 221.110 54.143 C 221.779 55.200, 221.973 55.113, 221.985 53.750 C 222.003 51.638, 221.135 51.583, 218.559 53.532 M 407.559 53.532 C 406.491 54.339, 406.127 55, 406.750 55 C 407.373 55, 408.190 54.502, 408.566 53.893 C 409.043 53.122, 409.510 53.197, 410.110 54.143 C 410.779 55.200, 410.973 55.113, 410.985 53.750 C 411.003 51.638, 410.135 51.583, 407.559 53.532 M 47.269 55.693 C 48.242 55.947, 49.592 55.930, 50.269 55.656 C 50.946 55.382, 50.150 55.175, 48.500 55.195 C 46.850 55.215, 46.296 55.439, 47.269 55.693 M 157.269 55.693 C 158.242 55.947, 159.592 55.930, 160.269 55.656 C 160.946 55.382, 160.150 55.175, 158.500 55.195 C 156.850 55.215, 156.296 55.439, 157.269 55.693 M 212.269 55.693 C 213.242 55.947, 214.592 55.930, 215.269 55.656 C 215.946 55.382, 215.150 55.175, 213.500 55.195 C 211.850 55.215, 211.296 55.439, 212.269 55.693 M 262.195 57.500 C 262.215 59.150, 262.439 59.704, 262.693 58.731 C 262.947 57.758, 262.930 56.408, 262.656 55.731 C 262.382 55.054, 262.175 55.850, 262.195 57.500 M 401.269 55.693 C 402.242 55.947, 403.592 55.930, 404.269 55.656 C 404.946 55.382, 404.150 55.175, 402.500 55.195 C 400.850 55.215, 400.296 55.439, 401.269 55.693 M 449.924 57.750 L 447.500 60.500 450.250 58.076 C 451.762 56.742, 453 55.505, 453 55.326 C 453 54.541, 452.190 55.180, 449.924 57.750 M 264.722 63.050 C 265.944 64.337, 267.138 65.189, 267.374 64.944 C 267.611 64.700, 266.611 63.648, 265.152 62.606 L 262.500 60.712 264.722 63.050" stroke="none" fill="#656565" fill-rule="evenodd"/><path d="M 296.852 8.391 C 291.964 10.137, 288.202 13.223, 284.342 18.651 L 281.138 23.157 282.966 27.329 C 283.971 29.623, 285.709 33.505, 286.829 35.955 L 288.863 40.411 292.521 32.455 C 294.533 28.080, 296.577 23.488, 297.065 22.250 C 297.819 20.333, 298.694 20, 302.975 20 L 308 20 308 37.500 L 308 55 304 55 L 300 55 299.980 44.250 L 299.960 33.500 295.844 42.803 C 291.862 51.801, 291.627 52.096, 288.701 51.803 C 285.942 51.527, 285.361 50.767, 282.088 43.155 L 278.500 34.810 278.215 44.905 L 277.930 55 274.015 55 L 270.100 55 269.800 49.250 L 269.500 43.500 266.250 49.122 C 262.218 56.096, 262.040 60.100, 265.635 62.927 C 268.253 64.987, 268.804 65, 351.885 64.994 C 406.400 64.991, 436.796 64.629, 439.225 63.954 C 446.866 61.832, 450.744 57.536, 461.746 39 C 474.879 16.873, 475.257 16.035, 473.873 12.064 C 473.277 10.356, 471.967 8.517, 470.961 7.979 C 469.807 7.362, 437.989 7.016, 384.816 7.044 C 318.152 7.079, 299.736 7.361, 296.852 8.391 M 312.500 18.359 C 309.547 22.866, 314.079 27.489, 318.567 24.548 C 321.356 22.720, 321.710 19.853, 319.429 17.571 C 317.166 15.309, 314.284 15.637, 312.500 18.359 M 347 36.443 L 347 55 351.500 55 L 356 55 356 46.700 C 356 37.952, 356.821 36, 360.500 36 C 364.179 36, 365 37.952, 365 46.700 L 365 55 369.500 55 L 374 55 374 44.423 C 374 34.066, 373.939 33.785, 371.077 30.923 C 367.722 27.568, 361.961 26.938, 358.271 29.523 C 356.115 31.033, 356.094 30.993, 355.798 24.773 L 355.500 18.500 351.250 18.193 L 347 17.885 347 36.443 M 222 25.523 L 222 32.046 219.496 30.405 C 216.669 28.553, 210.135 28.322, 207.063 29.966 C 201.335 33.032, 200.145 46.600, 205.164 51.619 C 208.456 54.910, 214.981 55.898, 218.444 53.629 C 221.512 51.619, 222 51.601, 222 53.500 C 222 54.583, 223.111 55, 226 55 L 230 55 230 37 L 230 19 226 19 L 222 19 222 25.523 M 8 38 L 8 55 12 55 L 16 55 16 50.674 C 16 47.446, 16.587 45.797, 18.314 44.174 C 19.587 42.978, 20.885 42, 21.197 42 C 21.509 42, 23.671 44.925, 26 48.500 L 30.235 55 35.176 55 C 38.856 55, 39.930 54.681, 39.382 53.750 C 38.977 53.063, 35.955 48.553, 32.667 43.730 L 26.689 34.960 29.072 32.230 C 30.382 30.728, 33.246 27.587, 35.435 25.250 L 39.416 21 34.372 21 C 29.359 21, 29.290 21.044, 23.414 27.981 C 20.161 31.820, 17.163 34.970, 16.750 34.981 C 16.337 34.991, 16 31.850, 16 28 L 16 21 12 21 L 8 21 8 38 M 49.500 28.651 C 41.816 30.493, 41.048 31.012, 42.216 33.576 C 42.914 35.106, 43.929 35.853, 44.917 35.562 C 50.542 33.903, 52.164 33.878, 54.507 35.413 C 58.296 37.896, 57.557 38.719, 51.122 39.185 C 43.064 39.768, 40 41.907, 40 46.950 C 40 53.796, 47.074 57.081, 54.050 53.474 C 56.694 52.107, 57 52.107, 57 53.474 C 57 54.588, 58.081 55, 61 55 L 65 55 64.900 46.250 C 64.779 35.589, 64.168 33.197, 60.976 30.892 C 58.308 28.966, 52.732 27.876, 49.500 28.651 M 82.021 29.116 C 80.657 29.660, 78.744 30.826, 77.771 31.708 C 76.129 33.194, 76 33.154, 76 31.155 C 76 29.308, 75.429 29, 72 29 L 68 29 68 42 L 68 55 72 55 L 76 55 76 48.565 C 76 39.950, 77.080 37.459, 81.438 36.020 C 84.598 34.978, 85 34.458, 85 31.422 C 85 29.540, 84.888 28.029, 84.750 28.063 C 84.612 28.098, 83.384 28.572, 82.021 29.116 M 130.323 28.696 C 129.125 28.929, 127.607 29.768, 126.950 30.560 C 125.400 32.428, 124 32.400, 124 30.500 C 124 29.417, 122.889 29, 120 29 L 116 29 116 42 L 116 55 120 55 L 124 55 124 47.934 C 124 40.302, 124.903 37.658, 128.090 35.952 C 129.670 35.106, 130.687 35.220, 132.567 36.452 C 134.828 37.933, 135 38.647, 135 46.523 L 135 55 139 55 L 143 55 143 45.450 C 143 34.363, 141.656 30.773, 136.881 29.108 C 135.132 28.499, 133.431 28.061, 133.101 28.136 C 132.770 28.211, 131.520 28.463, 130.323 28.696 M 185.500 30 C 180.808 32.392, 181 32.371, 181 30.500 C 181 29.417, 179.889 29, 177 29 L 173 29 173 42 L 173 55 177 55 L 181 55 181 47.934 C 181 40.302, 181.903 37.658, 185.090 35.952 C 186.670 35.106, 187.687 35.220, 189.567 36.452 C 191.828 37.933, 192 38.647, 192 46.523 L 192 55 196 55 L 200 55 200 45.450 C 200 34.363, 198.656 30.773, 193.881 29.108 C 189.805 27.688, 190.096 27.657, 185.500 30 M 312 41.443 L 312 55 316.500 55 C 319.573 55, 321 54.579, 321 53.673 C 321 52.636, 322.278 52.764, 326.830 54.257 C 331.693 55.851, 333.346 55.984, 336.785 55.058 C 347.796 52.093, 347.436 42.730, 336.153 38.625 C 333.319 37.593, 331 36.342, 331 35.843 C 331 34.110, 333.719 33.913, 337.876 35.345 L 342.059 36.786 343.572 33.860 C 345.074 30.956, 345.059 30.922, 341.575 29.467 C 334.911 26.682, 325.234 28.341, 323.621 32.545 C 321.415 38.293, 324.405 42.897, 331.750 45.063 C 334.087 45.753, 336 46.920, 336 47.658 C 336 49.498, 330.648 49.386, 326.942 47.470 C 324.064 45.982, 323.951 46.015, 322.742 48.682 C 321.641 51.112, 321.443 50.122, 321 39.962 L 320.500 28.500 316.250 28.193 L 312 27.885 312 41.443 M 377 41.500 L 377 55 381.500 55 L 386 55 386 47.500 C 386 39.432, 387.776 36, 391.950 36 C 393.023 36, 394.319 35.252, 394.831 34.337 C 395.651 32.872, 395.846 32.940, 396.471 34.909 C 396.990 36.545, 397.626 36.939, 398.840 36.378 C 399.753 35.957, 402.516 35.587, 404.979 35.556 C 408.475 35.512, 409.534 35.884, 409.803 37.250 C 410.094 38.734, 409.367 39, 405.024 39 C 399.501 39, 394.618 40.946, 393.621 43.545 C 390.621 51.363, 399.207 58.537, 406.945 54.678 C 408.625 53.839, 410 53.569, 410 54.077 C 410 54.584, 412.025 55, 414.500 55 L 419 55 419 44.556 C 419 35.059, 418.788 33.866, 416.669 31.402 C 413.742 27.998, 405.758 27.030, 399.250 29.290 C 395.677 30.531, 395 30.546, 395 29.383 C 395 27.511, 391.485 27.636, 388.465 29.615 C 386.196 31.102, 386 31.102, 386 29.615 C 386 28.368, 384.976 28, 381.500 28 L 377 28 377 41.500 M 86 38.453 C 86 43.652, 86.500 49.002, 87.110 50.343 C 89.286 55.118, 96.840 56.487, 101.365 52.927 L 104 50.855 104 52.927 C 104 54.679, 104.620 55, 108 55 L 112 55 112 42 L 112 29 108 29 L 104 29 104 36.277 C 104 44.402, 102.356 48, 98.643 48 C 94.813 48, 94 46.127, 94 37.300 L 94 29 90 29 L 86 29 86 38.453 M 148.400 32.400 C 145.089 35.711, 144.464 37.839, 144.993 44 C 145.764 52.977, 156.209 57.729, 165.466 53.315 C 169.570 51.358, 169.699 50.943, 166.976 48.479 C 165.425 47.075, 164.678 46.922, 163.776 47.824 C 161.124 50.476, 153 48.294, 153 44.929 C 153 44.418, 157.050 44, 162 44 L 171 44 171 40.950 C 171 37.160, 168.719 32.617, 165.783 30.561 C 164.378 29.576, 161.385 29, 157.677 29 C 152.327 29, 151.495 29.305, 148.400 32.400 M 234 38.453 C 234 43.652, 234.500 49.002, 235.110 50.343 C 237.286 55.118, 244.840 56.487, 249.365 52.927 L 252 50.855 252 52.927 C 252 54.679, 252.620 55, 256 55 L 260 55 260 42 L 260 29 256 29 L 252 29 252 36.277 C 252 44.402, 250.356 48, 246.643 48 C 242.813 48, 242 46.127, 242 37.300 L 242 29 238 29 L 234 29 234 38.453 M 154.200 35.200 C 153.540 35.860, 153 37.210, 153 38.200 C 153 39.693, 153.852 40, 158 40 C 162.148 40, 163 39.693, 163 38.200 C 163 35.653, 161.032 34, 158 34 C 156.570 34, 154.860 34.540, 154.200 35.200 M 212.313 35.786 C 211.659 36.201, 210.642 37.811, 210.052 39.363 C 208.859 42.500, 210.230 46.528, 213.095 48.305 C 216.821 50.616, 222 46.470, 222 41.175 C 222 36.571, 216.174 33.330, 212.313 35.786 M 48.441 44.441 C 46.891 45.593, 46.722 46.247, 47.602 47.691 C 49.143 50.220, 52.241 50.435, 54.997 48.203 C 59.736 44.366, 53.421 40.744, 48.441 44.441 M 402.667 44.667 C 402.300 45.033, 402 46.158, 402 47.167 C 402 48.508, 402.752 49, 404.800 49 C 407.788 49, 410 47.426, 410 45.300 C 410 43.945, 403.914 43.420, 402.667 44.667" stroke="none" fill="#f7f7f7" fill-rule="evenodd"/></svg>